<svg xmlns="http://www.w3.org/2000/svg" width="2000" height="2000" viewBox="0 0 2000 2000" version="1.1"><path d="M -0 1000 L -0 2000.001 1000.250 1999.750 L 2000.500 1999.500 2000.750 999.750 L 2001.001 0 1000.500 0 L 0 0 -0 1000 M 0.498 1000.500 C 0.498 1550.500, 0.611 1775.650, 0.750 1500.833 C 0.889 1226.016, 0.889 776.016, 0.750 500.833 C 0.611 225.650, 0.498 450.500, 0.498 1000.500 M 748.330 221.790 C 740.337 224.647, 739.682 225.183, 662.500 292.007 C 552.062 387.622, 502.003 423.140, 460 435.685 C 438.996 441.958, 420.702 437.943, 347.500 410.994 C 304.396 395.126, 300.154 393.819, 289.902 393.248 C 279.857 392.689, 273.128 394.280, 262.909 399.630 C 245.103 408.952, 233.140 424.627, 226.374 447.500 C 224.185 454.899, 223.693 458.634, 223.606 468.500 C 223.532 476.815, 223.935 481.532, 224.917 483.859 C 225.696 485.707, 231.029 493.582, 236.767 501.359 C 277.583 556.675, 322.551 634.124, 351.518 698.997 C 385.392 774.860, 402.632 838.067, 411.932 920.500 C 417.290 967.986, 419.219 1005.883, 421.501 1108.500 C 423.579 1201.944, 425.198 1238.287, 430.033 1300 C 445.589 1498.525, 483.001 1705.300, 514.224 1765.315 C 522.617 1781.445, 535.671 1791.759, 554.557 1797.180 C 565.011 1800.180, 588.840 1800.441, 598.831 1797.663 C 619.497 1791.918, 634.672 1779.438, 643.919 1760.583 C 653.705 1740.626, 657.478 1720.683, 660.473 1673.076 C 661.284 1660.193, 662.399 1649.201, 662.951 1648.649 C 664.488 1647.112, 676.517 1649.671, 683.569 1653.034 C 704.448 1662.994, 711.914 1680.985, 718.527 1737.284 C 722.114 1767.817, 724.736 1775.426, 735.205 1785.691 C 749.197 1799.410, 768.738 1805.710, 794.384 1804.772 C 805.804 1804.354, 808.769 1803.866, 817.312 1800.999 C 845.292 1791.610, 860.751 1770.855, 868.447 1732.347 C 869.310 1728.031, 870.263 1723.420, 870.565 1722.100 L 871.113 1719.700 882.898 1720.293 C 895.865 1720.945, 915.096 1724.508, 927.500 1728.556 C 938.076 1732.007, 948 1736.923, 948 1738.709 C 948 1739.498, 946.906 1742.024, 945.569 1744.322 C 934.239 1763.793, 934.934 1781.987, 947.487 1794.539 C 957.524 1804.576, 973.256 1809.346, 1005.738 1812.199 C 1025.087 1813.899, 1149.921 1813.874, 1192 1812.162 C 1347.577 1805.833, 1470.992 1792.720, 1546.874 1774.455 C 1618.503 1757.214, 1725.465 1717.543, 1762.651 1694.427 C 1772.048 1688.585, 1780.284 1679.671, 1782.529 1672.913 C 1786.438 1661.142, 1783.054 1649.807, 1771.143 1634.774 C 1767.538 1630.223, 1737.680 1599.450, 1704.794 1566.388 C 1671.907 1533.326, 1645 1505.789, 1645 1505.194 C 1645 1502.280, 1707.783 1470.473, 1772.808 1440.445 C 1783.428 1435.540, 1793.625 1430.285, 1795.468 1428.766 C 1800.506 1424.613, 1804 1416.834, 1804 1409.772 C 1804 1399.190, 1799.553 1392.650, 1788 1386.239 C 1763.782 1372.799, 1695.596 1320.184, 1665.118 1291.418 L 1655.735 1282.563 1660.618 1278.135 C 1677.909 1262.454, 1747.552 1208.662, 1770.975 1192.897 C 1780.679 1186.365, 1784.086 1183.465, 1786.312 1179.843 C 1790.313 1173.331, 1790.933 1165.448, 1788.047 1157.803 C 1784.676 1148.875, 1778.432 1143.901, 1757.821 1133.724 C 1731.702 1120.828, 1676.415 1096.273, 1648.222 1085.048 C 1640.835 1082.107, 1640.013 1081.524, 1640.590 1079.626 C 1641.973 1075.077, 1677.656 980.365, 1685.471 960.500 C 1690.015 948.950, 1695.818 934.953, 1698.366 929.394 C 1702.287 920.844, 1703 918.339, 1703 913.112 C 1703 902.370, 1698.135 894.325, 1689.152 890.212 C 1684.279 887.981, 1682.347 887.682, 1673.545 887.794 C 1664.942 887.903, 1599.164 890.570, 1556.250 892.550 L 1543 893.161 1543.008 890.330 C 1543.013 888.774, 1543.447 883.675, 1543.974 879 C 1544.501 874.325, 1546.758 849.800, 1548.989 824.500 C 1551.221 799.200, 1553.788 772.785, 1554.693 765.800 C 1556.661 750.624, 1555.772 744.478, 1550.631 737.738 C 1546.389 732.176, 1542.069 729.383, 1535.404 727.891 C 1526.085 725.806, 1521.232 727.047, 1455 748.458 C 1400.015 766.234, 1399.161 766.495, 1398.423 765.756 C 1398.092 765.425, 1395.598 756.907, 1392.881 746.827 C 1376.508 686.081, 1373.525 675.388, 1370.021 664.867 C 1360.951 637.634, 1352.482 628.601, 1336 628.581 C 1327.572 628.572, 1326.113 629.355, 1297 649.508 C 1254.055 679.235, 1221.716 701, 1220.491 701 C 1219.825 701, 1216.450 694.362, 1212.992 686.250 C 1203.479 663.936, 1183.241 619.513, 1174.124 600.936 C 1162.651 577.556, 1157.238 572.539, 1143.500 572.552 C 1134.758 572.561, 1130.406 574.676, 1120 583.973 C 1115.875 587.658, 1104.625 597.117, 1095 604.992 C 1085.375 612.867, 1076.710 619.988, 1075.744 620.816 C 1074.778 621.644, 1073.772 622.106, 1073.509 621.842 C 1073.246 621.579, 1076.415 606.319, 1080.551 587.932 C 1088.888 550.874, 1097.541 508.532, 1098.545 499.883 C 1100.428 483.662, 1091.310 470.484, 1075.500 466.581 C 1065.417 464.091, 1044.663 462.647, 987.176 460.432 L 969.851 459.765 970.510 452.132 C 970.872 447.935, 972.908 428.075, 975.034 408 C 981.963 342.586, 982.224 335.817, 978.174 326.659 C 975.348 320.272, 969.741 314.565, 963.767 311.995 C 959.219 310.039, 957.394 309.820, 949.525 310.286 C 939.967 310.852, 932.749 312.765, 910.500 320.628 C 896.568 325.552, 865.841 337.465, 844.216 346.326 L 830.932 351.770 829.588 349.135 C 828.849 347.686, 823.030 332.708, 816.657 315.850 C 788.193 240.562, 783.040 230.141, 771.059 223.626 C 764.149 219.868, 755.632 219.181, 748.330 221.790 M 242.190 297.026 C 236.058 300.764, 235.769 302.769, 236.824 334.356 C 237.854 365.231, 238.289 367.533, 244.301 373.876 C 250.910 380.851, 261.772 383.160, 270.766 379.504 C 276.100 377.336, 282.646 370.030, 284.103 364.618 C 286.435 355.957, 285.145 351.586, 273.113 327.373 C 260.460 301.911, 257.979 297.767, 254.415 296.143 C 250.645 294.425, 245.892 294.768, 242.190 297.026 M 156.190 356.353 C 149.894 359.846, 148.254 368.148, 152.595 374.545 C 159.032 384.031, 188.251 418.992, 191.333 420.897 C 198.933 425.594, 210.195 425.300, 217.476 420.215 C 219.663 418.688, 222.813 415.237, 224.476 412.547 C 227.056 408.375, 227.495 406.691, 227.463 401.078 C 227.419 393.213, 224.928 387.731, 219.220 382.939 C 217.124 381.180, 204.405 374.191, 190.955 367.409 C 165.396 354.520, 161.643 353.327, 156.190 356.353 M 625.254 431.505 L 557.007 439.778 546.254 446.745 C 498.734 477.532, 462.983 490.153, 432.289 486.977 C 416.772 485.372, 391.918 478.723, 361.563 468.056 C 353.650 465.275, 346.931 463, 346.633 463 C 346.335 463, 345.788 464.688, 345.419 466.750 C 344.228 473.399, 340.145 480.572, 334.530 485.883 C 325.790 494.149, 314.601 498.641, 298.793 500.228 C 296.134 500.495, 296.286 500.803, 307.580 518 C 353.338 587.671, 391.981 662.746, 417.991 732.500 C 442.511 798.258, 455.634 858.706, 462.931 939.500 C 466.862 983.033, 468.399 1018.114, 470.508 1112.500 C 472.006 1179.569, 473.133 1212.092, 475.030 1243 C 483.401 1379.406, 501.777 1521.138, 525.594 1633 C 536.868 1685.952, 550.614 1732.652, 558.316 1744.166 C 561.561 1749.017, 568.183 1751.113, 579.018 1750.717 C 590.481 1750.299, 595.051 1747.821, 599.609 1739.551 C 606.120 1727.740, 609.027 1711.253, 611.523 1672 C 614.003 1632.998, 616.106 1624.320, 625.549 1614.120 C 634.939 1603.978, 647.310 1599.437, 665 1599.637 C 702.921 1600.067, 736.464 1622.921, 751.343 1658.463 C 758.405 1675.334, 762.428 1693.633, 766.519 1727.500 C 767.915 1739.050, 769.273 1749.206, 769.538 1750.070 C 770.834 1754.290, 785.870 1757.551, 796.316 1755.876 C 811.173 1753.495, 815.822 1746.461, 821.488 1717.797 C 824.863 1700.720, 827.230 1693.618, 831.475 1687.833 C 840.631 1675.354, 856.748 1670.190, 883 1671.325 C 910.331 1672.506, 944.327 1680.614, 964.500 1690.762 C 989.176 1703.175, 1001.803 1722.662, 998.121 1742.648 C 997.447 1746.305, 995.817 1751.952, 994.497 1755.199 C 992.785 1759.413, 992.442 1761.221, 993.300 1761.523 C 1005.216 1765.712, 1137.308 1765.965, 1222.500 1761.962 C 1255.668 1760.404, 1311.450 1756.851, 1312 1756.262 C 1312.275 1755.967, 1312.050 1755.537, 1311.500 1755.305 C 1310.950 1755.073, 1297 1746.891, 1280.500 1737.123 C 1251.809 1720.138, 1250.399 1719.163, 1248.187 1714.772 C 1246.201 1710.829, 1246.021 1709.637, 1246.910 1706.340 C 1248.175 1701.650, 1250.747 1699.089, 1302 1651.496 C 1323.175 1631.833, 1340.500 1615.254, 1340.500 1614.653 C 1340.500 1614.053, 1314.998 1599.148, 1283.829 1581.531 C 1252.660 1563.914, 1225.997 1548.408, 1224.577 1547.074 C 1221.198 1543.898, 1219.880 1539.020, 1221.153 1534.408 C 1221.799 1532.070, 1231.456 1519.241, 1248.818 1497.658 C 1305.044 1427.762, 1309.897 1421.643, 1309.546 1421.080 C 1309.348 1420.761, 1284.092 1409.250, 1253.423 1395.500 C 1213.047 1377.398, 1196.782 1369.635, 1194.478 1367.365 C 1190.276 1363.224, 1189.554 1359.193, 1191.848 1352.681 C 1192.851 1349.832, 1206.346 1320.897, 1221.836 1288.382 C 1237.326 1255.867, 1250 1228.867, 1250 1228.382 C 1250 1227.897, 1218.837 1220.800, 1180.750 1212.610 C 1142.662 1204.421, 1109.822 1196.879, 1107.771 1195.850 C 1103.399 1193.658, 1101 1189.587, 1101 1184.359 C 1101 1181.937, 1108.761 1159.852, 1123.039 1121.648 C 1135.160 1089.214, 1144.722 1062.372, 1144.289 1061.998 C 1143.855 1061.625, 1110.650 1055.798, 1070.500 1049.050 C 1024.104 1041.252, 996.034 1036.099, 993.478 1034.912 C 988.657 1032.671, 986.003 1028.572, 985.991 1023.346 C 985.985 1020.773, 993.989 997.888, 1010.166 954.225 C 1024.617 915.220, 1033.978 888.607, 1033.425 888.098 C 1032.916 887.629, 999.650 880.623, 959.500 872.527 C 919.350 864.432, 884.625 856.994, 882.334 855.998 C 880.043 855.002, 877.381 852.985, 876.418 851.515 C 872.713 845.861, 873.472 843.452, 896.738 787 C 908.866 757.575, 918.630 733.332, 918.437 733.126 C 918.244 732.920, 891.592 728.144, 859.212 722.512 C 826.831 716.879, 799.041 711.648, 797.456 710.886 C 793.565 709.014, 790 703.471, 790 699.290 C 790 697.413, 800.580 656.909, 813.510 609.282 C 826.441 561.655, 836.826 522.493, 836.588 522.255 C 836.350 522.017, 811.483 518.677, 781.328 514.831 C 744.659 510.156, 725.345 507.287, 723.013 506.170 C 721.095 505.252, 718.593 503.097, 717.452 501.382 C 716.080 499.321, 712.558 485.946, 707.051 461.882 C 702.472 441.872, 698.514 424.938, 698.256 424.250 C 697.997 423.563, 696.822 423.052, 695.643 423.116 C 694.464 423.180, 662.789 426.955, 625.254 431.505 M 622.740 476.516 C 612.079 478.535, 604.399 481.216, 591.500 487.421 C 579.949 492.978, 559.302 506.049, 558.412 508.368 C 557.388 511.036, 576.831 544.467, 588.917 560.819 C 597.080 571.863, 618.821 593.581, 630.500 602.358 C 642.108 611.081, 658.816 619.320, 670.500 622.083 C 698.156 628.623, 716.767 616.803, 721.680 589.577 C 724.149 575.894, 721.678 559.338, 714.408 540.852 C 706.352 520.368, 698.236 508.024, 684.109 494.765 C 667.293 478.985, 644.887 472.322, 622.740 476.516 M 450.222 531.413 C 437.018 535.710, 430.408 550.479, 436.084 563 C 438.647 568.652, 441.410 571.636, 446.500 574.245 C 451.182 576.646, 502.809 592.785, 506.790 593.092 C 512.106 593.503, 513.885 592.961, 516.804 590.042 C 520.619 586.228, 521.625 581.119, 519.460 576.557 C 517.694 572.836, 473.286 535.313, 467.269 532.457 C 462.607 530.245, 455.205 529.792, 450.222 531.413 M 662.084 534.139 C 660.206 536.323, 656.783 539.215, 654.479 540.565 C 649.385 543.551, 637.651 547.630, 631.509 548.551 C 629.029 548.923, 627 549.587, 627 550.027 C 627 552.466, 655.046 573.477, 665.002 578.497 C 670.057 581.045, 680.780 585, 682.636 585 C 682.786 585, 683.189 583.507, 683.532 581.682 C 684.272 577.739, 682.609 567.839, 679.806 559.500 C 677.444 552.471, 666.947 529.961, 666.088 530.085 C 665.765 530.131, 663.963 531.956, 662.084 534.139 M 387.994 563.876 C 380.595 566.298, 375.148 571.005, 372.553 577.218 C 370.434 582.291, 370.602 591.527, 372.906 596.600 C 374.766 600.696, 413.352 643.048, 417.005 645.003 C 418.030 645.551, 420.495 646, 422.484 646 C 430.393 646, 435.638 640.264, 434.751 632.584 C 434.294 628.618, 417.458 580.691, 414.601 575.223 C 412.777 571.731, 408.415 567.691, 404.137 565.530 C 400.247 563.566, 391.636 562.683, 387.994 563.876" stroke="none" fill="#ffffff" fill-rule="evenodd"/><path d="M 748.330 221.790 C 740.337 224.647, 739.682 225.183, 662.500 292.007 C 552.062 387.622, 502.003 423.140, 460 435.685 C 438.996 441.958, 420.702 437.943, 347.500 410.994 C 304.396 395.126, 300.154 393.819, 289.902 393.248 C 279.857 392.689, 273.128 394.280, 262.909 399.630 C 245.103 408.952, 233.140 424.627, 226.374 447.500 C 224.185 454.899, 223.693 458.634, 223.606 468.500 C 223.532 476.815, 223.935 481.532, 224.917 483.859 C 225.696 485.707, 231.029 493.582, 236.767 501.359 C 277.583 556.675, 322.551 634.124, 351.518 698.997 C 385.392 774.860, 402.632 838.067, 411.932 920.500 C 417.290 967.986, 419.219 1005.883, 421.501 1108.500 C 423.579 1201.944, 425.198 1238.287, 430.033 1300 C 445.589 1498.525, 483.001 1705.300, 514.224 1765.315 C 522.617 1781.445, 535.671 1791.759, 554.557 1797.180 C 565.011 1800.180, 588.840 1800.441, 598.831 1797.663 C 619.497 1791.918, 634.672 1779.438, 643.919 1760.583 C 653.705 1740.626, 657.478 1720.683, 660.473 1673.076 C 661.284 1660.193, 662.399 1649.201, 662.951 1648.649 C 664.488 1647.112, 676.517 1649.671, 683.569 1653.034 C 704.448 1662.994, 711.914 1680.985, 718.527 1737.284 C 722.114 1767.817, 724.736 1775.426, 735.205 1785.691 C 749.197 1799.410, 768.738 1805.710, 794.384 1804.772 C 805.804 1804.354, 808.769 1803.866, 817.312 1800.999 C 845.292 1791.610, 860.751 1770.855, 868.447 1732.347 C 869.310 1728.031, 870.263 1723.420, 870.565 1722.100 L 871.113 1719.700 882.898 1720.293 C 895.865 1720.945, 915.096 1724.508, 927.500 1728.556 C 938.076 1732.007, 948 1736.923, 948 1738.709 C 948 1739.498, 946.906 1742.024, 945.569 1744.322 C 934.239 1763.793, 934.934 1781.987, 947.487 1794.539 C 957.524 1804.576, 973.256 1809.346, 1005.738 1812.199 C 1025.087 1813.899, 1149.921 1813.874, 1192 1812.162 C 1347.577 1805.833, 1470.992 1792.720, 1546.874 1774.455 C 1618.503 1757.214, 1725.465 1717.543, 1762.651 1694.427 C 1772.048 1688.585, 1780.284 1679.671, 1782.529 1672.913 C 1786.438 1661.142, 1783.054 1649.807, 1771.143 1634.774 C 1767.538 1630.223, 1737.680 1599.450, 1704.794 1566.388 C 1671.907 1533.326, 1645 1505.789, 1645 1505.194 C 1645 1502.280, 1707.783 1470.473, 1772.808 1440.445 C 1783.428 1435.540, 1793.625 1430.285, 1795.468 1428.766 C 1800.506 1424.613, 1804 1416.834, 1804 1409.772 C 1804 1399.190, 1799.553 1392.650, 1788 1386.239 C 1763.782 1372.799, 1695.596 1320.184, 1665.118 1291.418 L 1655.735 1282.563 1660.618 1278.135 C 1677.909 1262.454, 1747.552 1208.662, 1770.975 1192.897 C 1780.679 1186.365, 1784.086 1183.465, 1786.312 1179.843 C 1790.313 1173.331, 1790.933 1165.448, 1788.047 1157.803 C 1784.676 1148.875, 1778.432 1143.901, 1757.821 1133.724 C 1731.702 1120.828, 1676.415 1096.273, 1648.222 1085.048 C 1640.835 1082.107, 1640.013 1081.524, 1640.590 1079.626 C 1641.973 1075.077, 1677.656 980.365, 1685.471 960.500 C 1690.015 948.950, 1695.818 934.953, 1698.366 929.394 C 1702.287 920.844, 1703 918.339, 1703 913.112 C 1703 902.370, 1698.135 894.325, 1689.152 890.212 C 1684.279 887.981, 1682.347 887.682, 1673.545 887.794 C 1664.942 887.903, 1599.164 890.570, 1556.250 892.550 L 1543 893.161 1543.008 890.330 C 1543.013 888.774, 1543.447 883.675, 1543.974 879 C 1544.501 874.325, 1546.758 849.800, 1548.989 824.500 C 1551.221 799.200, 1553.788 772.785, 1554.693 765.800 C 1556.661 750.624, 1555.772 744.478, 1550.631 737.738 C 1546.389 732.176, 1542.069 729.383, 1535.404 727.891 C 1526.085 725.806, 1521.232 727.047, 1455 748.458 C 1400.015 766.234, 1399.161 766.495, 1398.423 765.756 C 1398.092 765.425, 1395.598 756.907, 1392.881 746.827 C 1376.508 686.081, 1373.525 675.388, 1370.021 664.867 C 1360.951 637.634, 1352.482 628.601, 1336 628.581 C 1327.572 628.572, 1326.113 629.355, 1297 649.508 C 1254.055 679.235, 1221.716 701, 1220.491 701 C 1219.825 701, 1216.450 694.362, 1212.992 686.250 C 1203.479 663.936, 1183.241 619.513, 1174.124 600.936 C 1162.651 577.556, 1157.238 572.539, 1143.500 572.552 C 1134.758 572.561, 1130.406 574.676, 1120 583.973 C 1115.875 587.658, 1104.625 597.117, 1095 604.992 C 1085.375 612.867, 1076.710 619.988, 1075.744 620.816 C 1074.778 621.644, 1073.772 622.106, 1073.509 621.842 C 1073.246 621.579, 1076.415 606.319, 1080.551 587.932 C 1088.888 550.874, 1097.541 508.532, 1098.545 499.883 C 1100.428 483.662, 1091.310 470.484, 1075.500 466.581 C 1065.417 464.091, 1044.663 462.647, 987.176 460.432 L 969.851 459.765 970.510 452.132 C 970.872 447.935, 972.908 428.075, 975.034 408 C 981.963 342.586, 982.224 335.817, 978.174 326.659 C 975.348 320.272, 969.741 314.565, 963.767 311.995 C 959.219 310.039, 957.394 309.820, 949.525 310.286 C 939.967 310.852, 932.749 312.765, 910.500 320.628 C 896.568 325.552, 865.841 337.465, 844.216 346.326 L 830.932 351.770 829.588 349.135 C 828.849 347.686, 823.030 332.708, 816.657 315.850 C 788.193 240.562, 783.040 230.141, 771.059 223.626 C 764.149 219.868, 755.632 219.181, 748.330 221.790 M 242.190 297.026 C 236.058 300.764, 235.769 302.769, 236.824 334.356 C 237.854 365.231, 238.289 367.533, 244.301 373.876 C 250.910 380.851, 261.772 383.160, 270.766 379.504 C 276.100 377.336, 282.646 370.030, 284.103 364.618 C 286.435 355.957, 285.145 351.586, 273.113 327.373 C 260.460 301.911, 257.979 297.767, 254.415 296.143 C 250.645 294.425, 245.892 294.768, 242.190 297.026 M 156.190 356.353 C 149.894 359.846, 148.254 368.148, 152.595 374.545 C 159.032 384.031, 188.251 418.992, 191.333 420.897 C 198.933 425.594, 210.195 425.300, 217.476 420.215 C 219.663 418.688, 222.813 415.237, 224.476 412.547 C 227.056 408.375, 227.495 406.691, 227.463 401.078 C 227.419 393.213, 224.928 387.731, 219.220 382.939 C 217.124 381.180, 204.405 374.191, 190.955 367.409 C 165.396 354.520, 161.643 353.327, 156.190 356.353 M 625.254 431.505 L 557.007 439.778 546.254 446.745 C 498.734 477.532, 462.983 490.153, 432.289 486.977 C 416.772 485.372, 391.918 478.723, 361.563 468.056 C 353.650 465.275, 346.931 463, 346.633 463 C 346.335 463, 345.788 464.688, 345.419 466.750 C 344.228 473.399, 340.145 480.572, 334.530 485.883 C 325.790 494.149, 314.601 498.641, 298.793 500.228 C 296.134 500.495, 296.286 500.803, 307.580 518 C 353.338 587.671, 391.981 662.746, 417.991 732.500 C 442.511 798.258, 455.634 858.706, 462.931 939.500 C 466.862 983.033, 468.399 1018.114, 470.508 1112.500 C 472.006 1179.569, 473.133 1212.092, 475.030 1243 C 483.401 1379.406, 501.777 1521.138, 525.594 1633 C 536.868 1685.952, 550.614 1732.652, 558.316 1744.166 C 561.561 1749.017, 568.183 1751.113, 579.018 1750.717 C 590.481 1750.299, 595.051 1747.821, 599.609 1739.551 C 606.120 1727.740, 609.027 1711.253, 611.523 1672 C 614.003 1632.998, 616.106 1624.320, 625.549 1614.120 C 634.939 1603.978, 647.310 1599.437, 665 1599.637 C 702.921 1600.067, 736.464 1622.921, 751.343 1658.463 C 758.405 1675.334, 762.428 1693.633, 766.519 1727.500 C 767.915 1739.050, 769.273 1749.206, 769.538 1750.070 C 770.834 1754.290, 785.870 1757.551, 796.316 1755.876 C 811.173 1753.495, 815.822 1746.461, 821.488 1717.797 C 824.863 1700.720, 827.230 1693.618, 831.475 1687.833 C 840.631 1675.354, 856.748 1670.190, 883 1671.325 C 910.331 1672.506, 944.327 1680.614, 964.500 1690.762 C 989.176 1703.175, 1001.803 1722.662, 998.121 1742.648 C 997.447 1746.305, 995.817 1751.952, 994.497 1755.199 C 992.785 1759.413, 992.442 1761.221, 993.300 1761.523 C 1005.216 1765.712, 1137.308 1765.965, 1222.500 1761.962 C 1255.668 1760.404, 1311.450 1756.851, 1312 1756.262 C 1312.275 1755.967, 1312.050 1755.537, 1311.500 1755.305 C 1310.950 1755.073, 1297 1746.891, 1280.500 1737.123 C 1251.809 1720.138, 1250.399 1719.163, 1248.187 1714.772 C 1246.201 1710.829, 1246.021 1709.637, 1246.910 1706.340 C 1248.175 1701.650, 1250.747 1699.089, 1302 1651.496 C 1323.175 1631.833, 1340.500 1615.254, 1340.500 1614.653 C 1340.500 1614.053, 1314.998 1599.148, 1283.829 1581.531 C 1252.660 1563.914, 1225.997 1548.408, 1224.577 1547.074 C 1221.198 1543.898, 1219.880 1539.020, 1221.153 1534.408 C 1221.799 1532.070, 1231.456 1519.241, 1248.818 1497.658 C 1305.044 1427.762, 1309.897 1421.643, 1309.546 1421.080 C 1309.348 1420.761, 1284.092 1409.250, 1253.423 1395.500 C 1213.047 1377.398, 1196.782 1369.635, 1194.478 1367.365 C 1190.276 1363.224, 1189.554 1359.193, 1191.848 1352.681 C 1192.851 1349.832, 1206.346 1320.897, 1221.836 1288.382 C 1237.326 1255.867, 1250 1228.867, 1250 1228.382 C 1250 1227.897, 1218.837 1220.800, 1180.750 1212.610 C 1142.662 1204.421, 1109.822 1196.879, 1107.771 1195.850 C 1103.399 1193.658, 1101 1189.587, 1101 1184.359 C 1101 1181.937, 1108.761 1159.852, 1123.039 1121.648 C 1135.160 1089.214, 1144.722 1062.372, 1144.289 1061.998 C 1143.855 1061.625, 1110.650 1055.798, 1070.500 1049.050 C 1024.104 1041.252, 996.034 1036.099, 993.478 1034.912 C 988.657 1032.671, 986.003 1028.572, 985.991 1023.346 C 985.985 1020.773, 993.989 997.888, 1010.166 954.225 C 1024.617 915.220, 1033.978 888.607, 1033.425 888.098 C 1032.916 887.629, 999.650 880.623, 959.500 872.527 C 919.350 864.432, 884.625 856.994, 882.334 855.998 C 880.043 855.002, 877.381 852.985, 876.418 851.515 C 872.713 845.861, 873.472 843.452, 896.738 787 C 908.866 757.575, 918.630 733.332, 918.437 733.126 C 918.244 732.920, 891.592 728.144, 859.212 722.512 C 826.831 716.879, 799.041 711.648, 797.456 710.886 C 793.565 709.014, 790 703.471, 790 699.290 C 790 697.413, 800.580 656.909, 813.510 609.282 C 826.441 561.655, 836.826 522.493, 836.588 522.255 C 836.350 522.017, 811.483 518.677, 781.328 514.831 C 744.659 510.156, 725.345 507.287, 723.013 506.170 C 721.095 505.252, 718.593 503.097, 717.452 501.382 C 716.080 499.321, 712.558 485.946, 707.051 461.882 C 702.472 441.872, 698.514 424.938, 698.256 424.250 C 697.997 423.563, 696.822 423.052, 695.643 423.116 C 694.464 423.180, 662.789 426.955, 625.254 431.505 M 622.740 476.516 C 612.079 478.535, 604.399 481.216, 591.500 487.421 C 579.949 492.978, 559.302 506.049, 558.412 508.368 C 557.388 511.036, 576.831 544.467, 588.917 560.819 C 597.080 571.863, 618.821 593.581, 630.500 602.358 C 642.108 611.081, 658.816 619.320, 670.500 622.083 C 698.156 628.623, 716.767 616.803, 721.680 589.577 C 724.149 575.894, 721.678 559.338, 714.408 540.852 C 706.352 520.368, 698.236 508.024, 684.109 494.765 C 667.293 478.985, 644.887 472.322, 622.740 476.516 M 450.222 531.413 C 437.018 535.710, 430.408 550.479, 436.084 563 C 438.647 568.652, 441.410 571.636, 446.500 574.245 C 451.182 576.646, 502.809 592.785, 506.790 593.092 C 512.106 593.503, 513.885 592.961, 516.804 590.042 C 520.619 586.228, 521.625 581.119, 519.460 576.557 C 517.694 572.836, 473.286 535.313, 467.269 532.457 C 462.607 530.245, 455.205 529.792, 450.222 531.413 M 662.084 534.139 C 660.206 536.323, 656.783 539.215, 654.479 540.565 C 649.385 543.551, 637.651 547.630, 631.509 548.551 C 629.029 548.923, 627 549.587, 627 550.027 C 627 552.466, 655.046 573.477, 665.002 578.497 C 670.057 581.045, 680.780 585, 682.636 585 C 682.786 585, 683.189 583.507, 683.532 581.682 C 684.272 577.739, 682.609 567.839, 679.806 559.500 C 677.444 552.471, 666.947 529.961, 666.088 530.085 C 665.765 530.131, 663.963 531.956, 662.084 534.139 M 387.994 563.876 C 380.595 566.298, 375.148 571.005, 372.553 577.218 C 370.434 582.291, 370.602 591.527, 372.906 596.600 C 374.766 600.696, 413.352 643.048, 417.005 645.003 C 418.030 645.551, 420.495 646, 422.484 646 C 430.393 646, 435.638 640.264, 434.751 632.584 C 434.294 628.618, 417.458 580.691, 414.601 575.223 C 412.777 571.731, 408.415 567.691, 404.137 565.530 C 400.247 563.566, 391.636 562.683, 387.994 563.876" stroke="none" fill="none" /></svg>