<?xml version="1.0" standalone="no"?>
<!DOCTYPE svg PUBLIC "-//W3C//DTD SVG 20010904//EN"
 "http://www.w3.org/TR/2001/REC-SVG-20010904/DTD/svg10.dtd">
<svg version="1.0" xmlns="http://www.w3.org/2000/svg"
 width="2000.000000pt" height="2000.000000pt" viewBox="0 0 2000.000000 2000.000000"
 preserveAspectRatio="xMidYMid meet">

<g transform="translate(0.000000,2000.000000) scale(0.100000,-0.100000)"
fill="#000000" stroke="none">
<path d="M7483 17782 c-80 -28 -86 -34 -858 -702 -1104 -956 -1605 -1311
-2025 -1437 -210 -63 -393 -22 -1125 247 -431 159 -473 172 -576 178 -100 5
-168 -11 -270 -64 -178 -94 -298 -250 -365 -479 -22 -74 -27 -111 -28 -210 -1
-83 3 -130 13 -154 8 -18 61 -97 119 -175 408 -553 858 -1327 1147 -1976 339
-759 511 -1391 604 -2215 54 -475 73 -854 96 -1880 21 -934 37 -1298 85 -1915
156 -1985 530 -4053 842 -4653 84 -161 215 -265 404 -319 104 -30 342 -32 442
-5 207 58 359 183 451 371 98 200 136 399 166 875 8 129 19 239 25 245 15 15
135 -11 206 -44 208 -100 283 -280 349 -843 36 -305 62 -381 167 -484 140
-137 335 -200 592 -191 114 4 144 9 229 38 280 94 435 301 511 687 9 43 19 89
22 102 l5 24 118 -6 c130 -6 322 -42 446 -83 106 -34 205 -83 205 -101 0 -8
-11 -33 -24 -56 -114 -195 -107 -377 19 -502 100 -101 258 -148 582 -177 194
-17 1442 -17 1863 0 1556 64 2790 195 3549 377 716 173 1786 570 2158 801 93
58 176 147 198 215 39 118 6 231 -114 381 -36 46 -334 354 -663 684 -329 331
-598 606 -598 612 0 29 628 347 1278 648 106 49 208 101 227 116 50 42 85 120
85 190 0 106 -44 171 -160 236 -242 134 -924 660 -1229 948 l-94 88 49 45
c173 156 870 694 1104 852 97 65 131 94 153 131 40 65 46 144 17 220 -33 89
-96 139 -302 241 -261 129 -814 374 -1096 487 -74 29 -82 35 -76 54 14 45 371
992 449 1191 45 116 103 255 129 311 39 86 46 111 46 163 0 107 -49 188 -138
229 -49 22 -69 25 -157 24 -86 -1 -743 -28 -1172 -47 l-133 -7 0 29 c0 15 4
66 10 113 5 47 28 292 50 545 22 253 48 517 57 587 20 152 11 213 -41 281 -42
55 -85 83 -152 98 -93 21 -142 9 -804 -206 -550 -177 -558 -180 -566 -173 -3
4 -28 89 -55 190 -164 607 -194 714 -229 819 -90 273 -175 363 -340 363 -84 0
-99 -8 -390 -209 -429 -297 -753 -515 -765 -515 -7 0 -40 66 -75 148 -95 223
-298 667 -389 853 -114 233 -169 284 -306 283 -87 0 -131 -21 -235 -114 -41
-37 -154 -131 -250 -210 -96 -79 -183 -150 -193 -158 -9 -8 -19 -13 -22 -10
-3 2 29 155 71 339 83 370 169 794 179 880 19 162 -72 294 -230 333 -101 25
-308 40 -883 62 l-173 6 6 77 c4 42 24 240 45 441 70 654 72 722 32 813 -29
64 -85 121 -144 147 -46 20 -64 22 -143 17 -95 -6 -168 -25 -390 -103 -139
-50 -447 -169 -663 -257 l-133 -55 -13 27 c-8 14 -66 164 -129 332 -285 753
-337 858 -456 923 -70 37 -155 44 -228 18z m-500 -2024 c2 -7 42 -177 88 -377
55 -240 90 -374 104 -395 11 -17 36 -39 55 -48 23 -11 217 -40 583 -86 302
-39 551 -72 553 -75 2 -2 -102 -394 -231 -870 -129 -476 -235 -881 -235 -900
0 -42 36 -97 75 -116 15 -7 293 -60 617 -116 324 -56 590 -104 592 -106 2 -2
-95 -245 -217 -539 -232 -565 -240 -589 -203 -645 10 -15 36 -35 59 -45 23
-10 371 -84 772 -165 402 -81 734 -151 739 -156 6 -5 -88 -271 -232 -661 -162
-437 -242 -666 -242 -691 0 -53 27 -94 75 -116 25 -12 306 -64 770 -141 402
-68 734 -126 738 -130 4 -4 -91 -272 -213 -596 -142 -383 -220 -603 -220 -628
0 -52 24 -93 68 -115 20 -10 349 -85 729 -167 381 -82 693 -153 693 -158 0 -5
-127 -275 -282 -600 -155 -325 -289 -614 -300 -643 -22 -65 -15 -105 27 -147
23 -22 185 -100 589 -281 307 -137 559 -253 561 -256 4 -5 -45 -67 -607 -766
-173 -215 -270 -344 -276 -367 -13 -46 0 -95 34 -127 14 -13 281 -168 592
-344 312 -176 567 -326 567 -332 0 -6 -173 -171 -385 -368 -513 -476 -538
-501 -551 -548 -9 -33 -7 -45 13 -85 22 -44 36 -53 323 -223 165 -98 305 -180
310 -182 6 -2 8 -7 5 -10 -5 -6 -563 -41 -895 -57 -852 -40 -2173 -37 -2292 5
-9 3 -5 21 12 63 13 32 29 89 36 126 37 199 -89 394 -336 518 -202 102 -542
183 -815 195 -263 11 -424 -41 -515 -165 -43 -58 -66 -129 -100 -300 -57 -287
-103 -357 -252 -381 -104 -17 -255 16 -268 58 -2 9 -16 111 -30 226 -41 339
-81 522 -152 690 -148 356 -484 584 -863 589 -177 2 -301 -44 -395 -145 -94
-102 -115 -189 -140 -579 -25 -393 -54 -557 -119 -676 -45 -82 -91 -107 -206
-111 -108 -4 -174 17 -207 65 -77 115 -214 582 -327 1112 -238 1119 -422 2536
-506 3900 -19 309 -30 634 -45 1305 -21 944 -36 1295 -76 1730 -73 808 -204
1412 -449 2070 -260 698 -647 1448 -1104 2145 -113 172 -115 175 -88 178 158
16 270 61 357 143 56 53 97 125 109 192 4 20 9 37 12 37 3 0 70 -23 150 -51
303 -106 552 -173 707 -189 307 -32 664 95 1140 403 l107 69 683 83 c375 45
692 83 703 84 12 0 24 -5 27 -11z"/>
<path d="M6227 15235 c-106 -20 -183 -47 -312 -109 -116 -56 -322 -186 -331
-210 -10 -26 184 -361 305 -524 82 -111 299 -328 416 -416 116 -87 283 -169
400 -197 277 -65 463 53 512 325 24 137 0 303 -73 487 -80 205 -162 329 -303
461 -168 158 -392 225 -614 183z m495 -652 c65 -136 92 -212 108 -302 9 -53 7
-131 -4 -131 -18 0 -125 40 -176 65 -100 50 -380 260 -380 285 0 4 20 11 45
14 62 10 179 50 230 80 23 14 57 43 76 65 19 21 37 40 40 40 3 1 31 -52 61
-116z"/>
<path d="M4502 14686 c-132 -43 -198 -191 -141 -316 25 -57 53 -86 104 -112
47 -24 563 -186 603 -189 53 -4 71 1 100 31 38 38 48 89 27 134 -18 38 -462
413 -522 441 -47 23 -121 27 -171 11z"/>
<path d="M3880 14361 c-74 -24 -129 -71 -154 -133 -22 -51 -20 -143 3 -194 19
-41 405 -464 441 -484 10 -6 35 -10 55 -10 79 0 131 57 123 134 -5 40 -173
519 -202 574 -18 35 -62 75 -105 97 -39 19 -125 28 -161 16z"/>
<path d="M2422 17030 c-61 -38 -64 -58 -54 -374 11 -308 15 -331 75 -395 66
-70 175 -93 265 -56 53 22 118 95 133 149 23 86 10 130 -110 372 -126 255
-151 296 -187 313 -38 17 -85 13 -122 -9z"/>
<path d="M1562 16436 c-63 -34 -79 -117 -36 -181 64 -95 357 -445 387 -464 76
-47 189 -44 262 7 22 15 53 50 70 77 26 41 30 58 30 114 -1 79 -26 134 -83
182 -21 17 -148 87 -282 155 -256 129 -294 141 -348 110z"/>
</g>
</svg>
